PathFileType	4	(X/Y/Z)	T1_P1_Vision_NoMovement_4_0-684.trc
DataRate	CameraRate	NumFrames	NumMarkers	Units	OrigDataRate	OrigDataStartFrame	OrigNumFrames
60	60	4	27	m	60	256	684
Frame#	Time	RHip			RKnee			RAnkle			RBigToe			RSmallToe			RHeel			LHip			LKnee			LAnkle			LBigToe			LSmallToe			LHeel			Neck			Head			Nose			RShoulder			RElbow			RWrist			RThumb			RIndex			RPinky			LShoulder			LElbow			LWrist			LThumb			LIndex			LPinky		
		X1	Y1	Z1	X2	Y2	Z2	X3	Y3	Z3	X4	Y4	Z4	X5	Y5	Z5	X6	Y6	Z6	X7	Y7	Z7	X8	Y8	Z8	X9	Y9	Z9	X10	Y10	Z10	X11	Y11	Z11	X12	Y12	Z12	X13	Y13	Z13	X14	Y14	Z14	X15	Y15	Z15	X16	Y16	Z16	X17	Y17	Z17	X18	Y18	Z18	X19	Y19	Z19	X20	Y20	Z20	X21	Y21	Z21	X22	Y22	Z22	X23	Y23	Z23	X24	Y24	Z24	X25	Y25	Z25	X26	Y26	Z26	X27	Y27	Z27
257	4.283333333333333	-66.94604200010198	3769.723847926679	-531.4581073026417	285.19294838235174	3896.9909005487025	-497.5681078739991	641.1042171818007	4155.047119826877	-529.7096211079224	702.0835769056807	4040.324183322179	-456.0219656737256	689.4335796651119	3965.558881571001	-486.5660214934009	679.4448115244139	4183.606966747082	-530.106989625292	-103.1072618910787	3884.6113951031944	-343.76437490473785	239.11597481836776	3955.3806913019644	-352.35321090895974	620.3170932945034	4251.85741133938	-456.2870783253329	664.7263588753058	3989.7533229373216	-345.0300683543411	673.1976904649682	4121.004016094285	-342.7253819084391	671.4557221437188	4323.176684147404	-500.01386829274105	-664.8690138504421	3665.1497240984204	-498.1981241229333	-916.1637955795311	3538.137738541105	-436.91430806507503	-777.3284885707874	3552.5916919212	-403.22547114448827	-553.4010957785916	3653.0203769494915	-650.5406271445391	-281.01399987101456	3665.795437196959	-686.7673714444055	-22.23187289821103	3625.914621948479	-593.8643859773022	86.98230482492649	3752.1578734651484	-564.0395273472212	117.38956607469315	3722.948342781532	-556.4381991750947	104.6497908094207	3654.643564450701	-574.4567020272199	-610.1154495116274	3756.1112749407494	-357.6284144057392	-392.0770305321017	3982.299295382753	-346.2875678662324	-127.37845880562608	3919.6672916762764	-228.78568494000038	7.34710499870819	3827.918527709949	-232.97965150810631	21.054091673839523	3857.6880840197477	-199.14530255206995	3.9007228756881056	3978.7361020346407	-216.08218407086252
258	4.3	-66.91070173540082	3769.932257792698	-531.6200963513489	284.57494707248173	3897.5967436521314	-497.0855211838152	641.2619462112118	4156.204328500737	-527.587584277741	703.0822766305675	4037.4525612217008	-455.62752571899847	689.2525343510349	3966.18863509892	-483.6633795911781	678.9055481681518	4181.897826521604	-529.2598130970453	-103.0430229670801	3884.631806577149	-343.7666967126918	239.22833579322784	3955.066056272246	-352.2316588121921	621.5709533986173	4252.969249245623	-458.4884490271439	665.8168336927527	3995.0606218978614	-345.2662936842821	675.3933344302636	4123.671642830528	-343.1305586130001	671.1642925304185	4324.086656323525	-501.6482175188328	-664.8897641089903	3665.1545050841264	-498.2034561501527	-916.2082764401064	3538.0760943768037	-436.90196469500097	-777.5739291529816	3552.5704800144244	-403.260205179948	-554.0145967220744	3653.2141083481356	-650.7900220693957	-280.3868332759479	3665.8043411559465	-686.96055935556	-22.19488016651122	3625.9566087988705	-593.9020666737599	87.15647910217741	3755.9022371843116	-565.0479983597172	116.70013401650749	3722.7203524387332	-556.5033205308441	104.72291274040175	3654.6704173811804	-574.5874505075999	-610.0976710113665	3756.1155710949606	-357.63673460138307	-391.53986823372816	3982.3918722190288	-346.17251577028054	-127.37904093211345	3919.657981072105	-228.76758627180726	7.444043263478672	3827.95170607822	-233.08397341115145	21.01264153328068	3855.660082209064	-198.8071741576294	3.8545417388265566	3978.405186429589	-215.36863576595937
259	4.316666666666666	-66.88946689520567	3769.68570289277	-531.4233212960111	285.8632687194683	3900.671258561027	-496.3052763652895	641.8090179967954	4156.360567366741	-526.0446932264667	702.2225112458531	4030.794444586715	-453.9026792221643	689.1939684812464	3968.6854910134352	-481.22639769202624	679.2671819219951	4184.010982718692	-529.7281702244487	-102.97140061370496	3884.7023188839357	-343.79515869878463	239.73197109924163	3954.5933626221804	-352.0549450256594	623.0003965780772	4254.337256700591	-461.1026187200783	665.8990554896216	3999.0655224982174	-345.0417055280489	676.6536283506207	4127.733665530019	-343.67023519124706	670.4289140172216	4325.427886574215	-503.8306146897883	-664.978492144208	3665.100182670782	-498.1753955700285	-916.2462560819409	3538.045446407697	-436.90000042122904	-776.9504663332287	3552.7858717769163	-403.24469983108185	-555.1781765550702	3652.94668201968	-650.7472383557524	-279.8132493758797	3665.9347892521637	-687.0583033439084	-22.170510912663822	3625.9477848189017	-593.8951873654153	87.29291987004612	3758.6787975891793	-565.7997735430991	116.56974121143887	3722.6489879084666	-556.5111893344899	104.8297645816635	3654.6086831969096	-575.2154772381627	-610.0787820949919	3756.132495900544	-357.6653256044281	-390.6593698396051	3982.5914069970504	-346.0465073862068	-127.49944629907216	3919.5923555427926	-228.72771835552822	7.433531639328088	3827.9008652761745	-233.0714246435867	21.01618199824898	3854.7134583723755	-198.64842041236017	3.6371471925145618	3977.788511352034	-214.21874666134593
260	4.333333333333333	-66.89862135915396	3769.222007327986	-531.0533447177559	288.8273192051194	3908.2934667428317	-497.2402377701053	643.0386425891801	4154.386601426153	-525.4870474739153	701.4350750253877	4027.914664743073	-451.8918620470367	691.2727856579487	3974.0975254414507	-481.98687970560087	680.4913939025574	4187.1954824442455	-530.8862493271755	-102.948548355236	3884.8014937743765	-343.8406798716872	240.51997206230854	3953.9715193884103	-351.8478400254259	623.6372873909401	4254.804309183551	-462.4110451705609	665.5714229815244	4000.820494922198	-344.3688587249163	676.8572618710187	4132.1372813958915	-344.13822306111246	669.886533479048	4326.03229745919	-505.04838401742074	-664.9824539332573	3665.0784532225866	-498.14568864711873	-916.1231648608666	3538.0602745627752	-436.88809543648307	-776.0124324292797	3553.0474366715557	-403.1945513562196	-556.2200667362342	3652.38420609448	-650.4403315156417	-279.62076073188683	3666.298457374593	-687.1656937461987	-22.169969838079318	3625.885399505609	-593.8472901796557	87.34435097344794	3759.834213713205	-566.0780345508524	117.56661749675267	3722.7827363410097	-556.3459970820319	104.96122819167138	3654.3601563806765	-576.3718948309191	-610.057583219722	3756.1472021801533	-357.68921175891774	-390.19787418265395	3982.7284446575286	-346.02019417229786	-128.11028077375886	3919.2306942984064	-228.58669491585525	6.922408820710592	3827.5435723623405	-232.8782267009085	21.034548890854772	3856.623271567364	-198.94036226634324	3.096318332198221	3977.1370944753235	-213.47048545321036
